<mxfile host="app.diagrams.net" modified="2023-08-21T03:17:36.214Z" agent="Mozilla/5.0 (Windows NT 10.0; Win64; x64) AppleWebKit/537.36 (KHTML, like Gecko) Chrome/115.0.0.0 Safari/537.36" version="21.6.8" etag="TQ-4n87btNL4vkN7dk74" type="github">
  <diagram name="第 1 页" id="71CI2iTBUP1NuLy0u_fW">
    <mxGraphModel>
      <root>
        <mxCell id="0" />
        <mxCell id="1" parent="0" />
      </root>
    </mxGraphModel>
  </diagram>
</mxfile>
